<svg width="181" height="52" viewBox="0 0 181 52" fill="none" xmlns="http://www.w3.org/2000/svg">
    <path fill-rule="evenodd" clip-rule="evenodd" d="M19.9287 25.8877L19.9366 25.8024L20.0095 25.7961L20.0523 25.6664L20.1715 25.5449L20.2102 25.5833L20.2225 25.7434L20.1411 25.9622L20.0343 25.9461L19.9287 25.8877ZM18.9917 27.6784L18.9289 27.7187L18.8845 27.7107L18.8681 27.6074L18.9331 27.5364L19.0319 27.5972L18.9917 27.6784ZM8.4059 23.583L8.33013 23.5351L8.31585 23.4856L8.33931 23.4428L8.39891 23.4568L8.44454 23.51L8.45341 23.5868L8.4059 23.583ZM21.0553 8.06312L20.9662 7.99556L20.983 7.95304H21.0851L21.1272 8.00382L21.0553 8.06312ZM51.5809 28.8149H38.5438L38.5181 28.8238L38.4522 28.8958L38.4858 28.9503L38.2937 29.0182L38.1923 29.16H38.0271L37.9574 29.1831L37.9469 29.2233L37.8667 29.3166L37.8623 29.3842L37.8981 29.4117L37.8055 29.5557L37.7142 29.6676V29.7948L37.6315 29.9724L37.429 30.2686L37.3104 30.3174L37.2616 30.3158L37.2407 30.3152L37.2679 30.3469L37.2784 30.4334L37.2407 30.4886L37.1202 30.8609L37.027 31.0959L37.0331 31.2246L37.1919 31.3619L37.3104 31.4951L37.3843 31.485L37.4584 31.692L37.4267 31.7577L37.3801 31.7431L37.3123 31.7875L37.2784 31.9229L37.2889 32.1299L37.3738 32.2124L37.3592 32.3437L37.2828 32.4071L37.3019 32.5321L37.3633 32.6805L37.3316 32.6887L37.3652 32.7563L37.3887 32.8663L37.454 32.9234L37.3992 33.0141L37.4524 33.0778L37.5092 33.2449L37.4898 33.3296L37.6889 33.5221L37.8347 33.5433L37.9558 33.6458V33.7006L37.9704 33.7098L38.0106 33.7345L37.9897 33.8661L37.9599 33.9343L37.9897 33.9597L37.8753 34.1249L37.8623 34.1845L37.8835 34.227L37.8918 34.261L37.8496 34.3031L37.8753 34.5029L37.9387 34.6215L37.9048 34.6554V34.7997L37.9365 34.8336L37.9403 34.9732L37.8813 35.0325L37.9022 35.1802L37.8623 35.4577L37.8391 35.4596L37.8705 35.5065L37.8731 35.758L37.7881 35.771L37.784 35.8027L37.8138 35.8426L37.9257 35.8471L37.9555 35.8703L37.9808 36.0881L37.9238 36.1702L37.8642 36.2001L37.9006 36.2502L37.8835 36.3056H37.8113L37.7307 36.3865L37.752 36.4163L37.7773 36.3948L37.8496 36.4033L37.7989 36.4753L37.7862 36.5901L37.7139 36.6028L37.5906 36.7597V36.8279L37.4806 36.9804L37.3874 36.9931L37.3957 37.099L37.0223 37.3026L36.9671 37.3071L36.9376 37.3873L36.5807 37.5772L36.4435 37.5605L36.4371 37.5899L36.2742 37.6664L36.0482 37.8144L35.993 37.7783L35.9908 37.8484L35.8535 38.0155L35.7857 38.045L35.7455 37.9559L35.7223 38.1017L35.6567 38.1189L35.6354 38.2035L35.4091 38.337L35.405 38.3938L35.3457 38.4445L35.2931 38.4616L35.2994 38.54L35.1682 38.5441L34.8677 38.7455L34.8851 38.8726L34.7875 38.9449H34.6515L34.5967 39.0169L34.4905 38.9487L34.4309 38.9576V39.0039L34.4861 39.068L34.4819 39.1568L34.4398 39.2119L34.4566 39.2969L34.3973 39.3857L34.5583 39.6023L34.5627 39.6787L34.4905 39.7377L34.546 39.7637L34.6052 39.861L34.6093 39.9926L34.6756 40.116L34.648 40.4671L34.6797 40.5898L34.72 40.5834V40.4864L34.7834 40.3507L34.7919 40.4689L34.8195 40.4648L34.8129 40.6177L34.7663 40.6757L34.7577 40.8286L34.7831 40.8498L34.7152 41.028V41.1216L34.6645 41.185L34.6559 41.2995H34.6262L34.6474 41.3971L34.7327 41.3464L34.7517 41.4108L34.6819 41.5167L34.648 41.6603L34.4429 41.8782L34.079 42.0431L33.5864 42.1407L33.3981 42.3202L33.2545 42.356L33.2121 42.4239L33.1404 42.4813L33.1002 42.6186L33.0431 42.6167L32.9902 42.6526L33.0133 42.6823L33.0685 42.7854L33.0621 42.8847L33.1129 42.8197L33.1934 42.8447L33.2184 42.7499L33.2545 42.7432L33.2584 42.7962L33.2352 42.9541L33.18 43.0477L33.1769 43.1339L33.1759 43.1618L33.1078 43.2513L33.142 43.2639L33.0738 43.4672L33.0571 43.6416L32.973 43.8093L32.9185 44.0253L32.8377 44.1227L32.8126 44.2219L32.658 44.4039H32.6095L32.5753 44.4528L32.4615 44.5057L32.4088 44.5711L32.2732 44.6576L32.2047 44.7911L32.0944 44.9183V44.9735L32.0307 45.0924L31.9248 45.0968L31.8398 45.262L31.6065 45.6524L31.4271 45.8236L31.3976 45.9797L31.294 46.0247L31.1948 46.143L31.1377 46.1452L31.1124 46.1893L30.5265 46.767L30.4546 46.7794L30.4568 46.8092L30.3617 46.9151L29.9769 47.1628L29.8945 47.2535L29.7591 47.2941V47.3299L29.5442 47.3863L29.4212 47.4621L29.2951 47.4735L29.2342 47.4272L29.0627 47.4339L28.9207 47.4767L28.8608 47.5801L28.9451 47.6502L28.9378 47.6797L28.7422 47.6841L28.6272 47.6251L28.5358 47.6156L28.4569 47.6955L28.4909 47.7659L28.455 47.8005L28.1859 47.7431L28.1095 47.685L27.8515 47.6194L27.6822 47.653L27.6803 47.6933L27.5915 47.725L27.4604 47.6553L27.1601 47.653L27.0711 47.6933L27.0438 47.7865L26.9846 47.7589L26.9148 47.7783L26.8533 47.8287L26.8194 47.8737L26.6862 47.882L26.5997 47.9197L26.4346 47.8607L26.2951 47.869L26.2678 47.9096L26.1322 47.8797L26.012 48.0174L25.9103 48.0361L25.8744 48.1163L25.8152 48.0954L25.7619 48.1211L25.483 47.9898L25.4262 48.0234L25.4195 47.8883L25.3137 47.8331L25.2335 47.8737L25.1806 47.8503L25.2272 47.8119L25.1976 47.6955L25.0665 47.6724L24.9733 47.7548L24.9799 47.8585L24.9079 47.8056L24.9016 47.6914L24.9419 47.5963L24.9165 47.4542L24.9926 47.3299L24.8931 47.1498L24.7938 47.061L24.7092 46.9151V46.7708L24.7681 46.7163L24.8233 46.773H24.874L24.9397 46.7011L24.9733 46.5279L24.9124 46.3396L24.9225 46.2549L24.7615 45.9873L24.7571 45.8648L24.5998 45.6606L24.5282 45.3343L24.4097 45.0245L24.4137 44.8676L24.2946 44.5238L24.1126 44.3925L24.0828 44.2102L24.0787 44.2073L23.8876 44.0703L23.8581 43.9936L23.7221 43.8579L23.5867 43.5906L23.4847 43.4504L23.4742 43.2341L23.3851 43.1368V43.0226L23.4444 42.976L23.394 42.8768L23.3176 42.8365L23.2771 42.5425L23.2092 42.4579L23.2894 42.4068L23.2387 42.2457L23.2558 42.0079L23.0903 41.5668L23.0732 41.1339L22.9927 40.8454L23.065 40.8159V40.5828L22.7683 40.1541V39.9971L22.4881 39.5982L22.4456 39.3477L22.1682 38.7245L21.9898 38.4186L21.6585 38.0789L21.6246 37.5436L21.6499 37.3648L21.6411 37.093L21.6671 36.9145V36.7109L21.8198 36.5238L21.8538 36.3114L21.9898 36.1328V35.6822L22.0408 35.64L22.049 35.453L22.3549 35.1812L22.3635 35.0451L22.6098 34.858H22.6776L22.8985 34.4417V33.9489L22.8304 33.8639L22.8393 33.7704L22.6269 33.4219V33.2776L22.5416 33.1416V32.9377L22.4399 32.8869L22.6183 32.6573L22.6437 32.4366L22.4741 32.1985L22.463 31.7615L22.153 31.4143V31.3334L22.0937 31.2611L22.2551 31.1723L22.1869 31.1212L22.0256 31.1171L21.9964 31.0515L21.9663 30.9855L22.0303 30.8666L21.992 30.7055L21.9241 30.6313L21.8604 30.5609L21.8645 30.4506L21.7755 30.3532L21.7713 30.2517L21.6018 30.1455L21.5634 30.0732L21.4525 29.9654L21.4277 29.9416L21.3304 29.9035L21.3133 29.81L21.1101 29.7127L21.0591 29.5896L20.8042 29.386L20.6517 29.2246L20.6942 29.1948L20.55 29.0759L20.4904 28.9443L20.4058 28.8597V28.6903L20.304 28.5587V28.4693L20.2403 28.4185L20.1214 28.1725L20.13 28.1132L20.2657 28.1598L20.3718 28.0703L20.3972 27.7612L20.4144 27.6042L20.4777 27.6676L20.7237 27.6083L20.55 27.5661L20.4394 27.3876L20.5582 27.3708L20.5655 27.2376L20.5668 27.205L20.427 27.133L20.5668 26.866L20.7449 26.6662L20.7025 26.5686L20.7247 26.5467L20.8131 26.4585L20.7326 26.3735L20.8087 26.1785L20.7877 25.9619L20.6856 25.8176V25.6607L20.7237 25.5887L20.639 25.4529L20.4736 25.5249L20.4226 25.4656L20.3249 25.4529L20.2574 25.1095L20.1683 25.1558L20.0923 25.1197L20.0878 25.1178L20.0454 25.1431L19.9436 25.0372L19.8881 25.1942L19.7439 25.224L19.6593 25.1853L19.4003 25.2789L19.3201 25.2449L19.2095 25.3128L18.6668 25.3426L18.4633 25.2874L18.319 25.1558L18.2557 24.9605L18.1792 24.9227L18.1834 24.7442L18.0433 24.4728L17.8147 24.2479L17.4033 24.0317L17.2251 24.1036L17.0061 24.0573L16.9833 24.0526L16.5975 24.1842L16.3962 24.1579L16.3385 24.1503L16.0374 24.3371L15.9902 24.3434L15.6855 24.384L15.418 24.5111L15.1254 24.7569L14.7862 24.7867L14.3025 25.0201L14.0822 24.9227L13.781 24.8803L13.7525 24.8279L13.6708 24.6808L13.5649 24.7061L13.5395 24.8463L13.2808 24.723L13.0009 24.8124L12.2585 24.8165L12.0465 24.8463L12.0424 24.9012L11.6562 25.0455L11.6138 25.1007H11.4908L11.2959 25.2703L11.2426 25.251L10.6895 25.0496L10.2609 24.7315L10.1423 24.7188L9.79429 24.371L9.77053 24.3548L9.56098 24.2137L9.47634 24.2096L9.33211 24.0063L9.2389 23.9635L9.28142 23.883L9.26399 23.8734L9.19643 23.8363H8.98438L8.68418 23.681L8.55742 23.6493L8.58909 23.5814L8.50858 23.4907L8.43883 23.4231L8.48543 23.3258L8.4813 23.3001L8.36913 23.3423L8.24452 23.2069V23.0804L8.18716 22.9031L8.08096 22.8859L8.03849 22.7969L8.11487 22.6529L8.03436 22.6101L8.04262 22.5254L8.10222 22.4192L8.09493 22.4135L8.01315 22.3469L7.86065 22.2664L7.81787 22.0967L7.69933 22.0926L7.64829 22.0415L7.65273 21.9527L7.6952 21.9102L7.60169 21.8681L7.55096 21.9397L7.46633 21.9061L7.33891 21.8975L7.21145 21.7235L7.26248 21.5158L7.17341 21.4178L7.16327 21.4213L7.02922 21.4603L7.00383 21.4263L7.01209 21.3331L6.77465 21.3588L6.90619 21.2145L6.84251 21.21L6.87642 21.159L6.82569 21.1041L6.73218 21.0914L6.69827 21.0445L6.97819 21.0404L7.02479 21.0065L6.87229 20.9218L6.73662 20.9513L6.59238 21.0024L6.5287 20.9894L6.49917 20.9301L6.38446 20.9218L6.28269 20.8197L6.38446 20.7436L6.30839 20.7351L6.12168 20.7261L6.07507 20.6415V20.6393L6.0792 20.5311L6.03673 20.4931L6.13024 20.5188L6.18949 20.54L6.31252 20.4636L6.12168 20.3954L5.99426 20.4636L5.96474 20.4211L6.01991 20.3618V20.1918L5.95617 20.1113L6.05381 20.0136L6.16828 20.1576L6.32103 20.1535L6.40567 20.0729L6.27856 20.1069L6.13437 20.0349L6.09185 19.9036L6.16828 19.8481L6.02847 19.7593L6.07507 19.7504V19.636L5.96887 19.6191L5.84589 19.4028L5.65505 19.25L6.00721 18.9275L6.15145 18.6643L6.17587 18.482L6.20662 18.253L6.29538 17.9048L6.43106 17.7139L6.4694 17.3109L6.35907 16.73L6.19805 16.4836L6.26178 16.4369H6.33816L6.3762 16.246L6.33372 16.1275L6.40567 16.0552L6.24465 15.8135L6.17684 15.8684L6.13024 15.843L6.08364 15.7073L5.9603 15.8474L5.9521 15.6309L6.00721 15.5081L5.99426 15.3001L6.05381 15.1812L6.0453 15.041L6.1258 14.9564L6.19362 14.9393L6.37176 14.613L6.4694 14.5746L6.40159 14.5235L6.4101 14.4684L6.63485 14.1715L6.6222 14.0865L6.76201 13.7809L6.84251 13.7387L7.1056 13.4926L7.12681 13.3315L7.47046 12.8305L7.42355 12.6865L7.5763 12.5974L7.61434 12.4871L8.00489 12.2835L8.10666 12.279V12.0586L8.32376 11.7552L8.45851 11.5665L9.00564 11.4644L9.39584 11.1124L9.57398 11.0956L9.735 10.9215L9.77303 10.7646L10.1252 10.3659L10.1633 10.2045L10.0999 10.124L10.0532 10.0771L10.1252 9.86934L10.032 9.68258L10.0402 9.5595L10.1848 9.26241L10.4095 9.05882L10.4248 8.9234L10.336 8.72869L10.5915 8.54478L10.6698 8.4243L10.8074 8.37989L11.0296 8.23178L11.0886 8.22959L11.2429 8.0647L11.4502 7.99459L11.5729 7.90802L11.6322 7.90358L11.8877 7.66701L11.9622 7.52114L11.9875 7.29032L12.108 7.13176L12.1314 6.82732L12.2373 6.70842L12.3264 6.71699L12.3736 6.67385L12.4814 6.63612L12.5153 6.67829L12.494 6.71031V6.77343L12.5194 6.86219L12.5809 6.90885L12.7353 7.07373L12.858 7.09943L13.0273 7.07373L13.1455 7.0125L13.2387 7.01887L13.4181 7.06772L13.5981 7.03157L13.6977 6.92373L13.7008 6.92246L13.7404 6.93546L13.7712 7.04202L13.8409 7.11401L14.1583 7.13935L14.2381 7.13558L14.389 7.1289L14.5602 7.07373L14.668 6.95733L14.687 6.89013L14.7571 6.8264L14.8899 6.75885L15.0487 6.74804L15.0804 6.70368L15.1397 6.66116L15.2199 6.65927L15.2556 6.69318H15.3172L15.3872 6.60217L15.3933 6.51529L15.5267 6.43284L15.6046 6.43065L15.7622 6.40842L16.0335 6.2007L16.1569 6.21753L16.3731 6.20927L16.4916 6.1668L16.6231 6.23879L16.7078 6.24323L16.8523 6.10307L16.9579 6.14554H17.0771L17.1322 6.03107L17.2045 6.01394L17.3059 6.0482L17.3608 6.0352L17.48 6.05233L17.6283 6.02694L17.6965 6.0482L17.8486 6.05646L17.9209 6.17123H18.0484L18.1628 6.0818H18.2515L18.3241 6.11163L18.3748 6.02694L18.4893 6.00568L18.4978 5.92931L18.629 5.89948L18.7099 5.95878L18.7226 6.0482L18.9134 6.06911L19.0107 5.97591L19.0155 5.91661L19.168 5.97178L19.2909 6.07767L19.5287 6.00981L19.6133 6.02694L19.7705 5.99712L19.7997 6.03077L19.9439 5.90391L20.1474 5.80179L20.2961 5.77232L20.3554 5.85288L20.3598 5.78088L20.4828 5.75519L20.5551 5.81892L20.5421 5.91661L20.5969 5.93751L20.6819 6.12841L20.737 6.16267L20.8052 6.09037L21.0043 5.90804L21.0553 5.94639V6.05646L20.945 6.22196L20.9364 6.32378L20.8007 6.41699L20.7754 6.56571L20.9111 6.74804L21.0765 6.81177L21.0721 6.99415L21.1145 7.02392L21.1358 7.10448L21.0765 7.16821L21.1231 7.23164L21.0806 7.28268L20.9193 7.4441L20.6397 7.63912L20.5845 7.80467L20.6736 7.96573L20.8518 8.08876L20.9326 8.07199L20.958 8.15662L21.0337 8.19058L21.0765 8.15662L21.0679 8.11415L21.1018 8.08876L21.1868 8.13541L21.191 8.21592L21.2081 8.27557L21.3736 8.37704L21.4398 8.39034L21.5682 8.41538L21.6744 8.5172L21.9498 8.57649L22.3448 8.5045L22.5182 8.57267L22.8282 8.58093L23.019 8.70396L23.3794 8.75469L23.5192 8.9415L23.5151 9.11557L23.6891 9.45075L23.8758 9.544H24.092L24.1513 9.51005L24.3332 9.53131L24.7491 9.70537L25.0087 9.83891L25.1777 9.97621L25.3936 10.1541L25.6389 10.2514L25.7549 10.2068L25.9455 10.046L25.9648 9.99334L26.1106 9.84523L26.1572 9.71807L26.0893 9.49327L25.9879 9.33629L26.0044 9.04771L26.0767 8.99254L26.1106 8.83968L26.2463 8.70809L26.484 8.59363L26.7594 8.56823L26.9335 8.47916H26.976L27.0948 8.53846L27.1541 8.48773L27.2004 8.51307L27.396 8.5638H27.5187L27.7561 8.69539L27.7605 8.76325L27.718 8.78039L27.7605 8.84412L27.9599 8.89929L28.1082 8.91168L28.1847 8.97954L28.5622 9.02644L28.6639 9.00936L28.7654 9.02644L28.8459 9.11557L28.8969 9.27189V9.27255L28.9521 9.25573L29.2323 9.24273L29.4485 9.31472L29.8853 9.34898L30.0676 9.38732L30.2248 9.49735L30.2923 9.45488H30.3557L30.5171 9.55665L30.7078 9.544L30.8394 9.55665L31.0429 9.68416H31.2299L31.2508 9.63307L31.3697 9.51861L31.5136 9.47201L31.5859 9.43362L31.7355 9.35214L31.8031 9.3036L31.9615 9.29947L32.0738 9.28459L31.9853 9.32267L31.8769 9.33532L31.8744 9.36132L31.9127 9.39971L32.0354 9.34898L32.1416 9.36132L32.2475 9.34898L32.2303 9.31059L32.1498 9.29346L32.1797 9.25986L32.3704 9.31059L32.4849 9.34898L32.5781 9.33629L32.625 9.38258L32.5699 9.40828L32.5952 9.50592L32.7097 9.56934L32.7863 9.68416L32.7905 9.61186L32.7141 9.49735L32.7394 9.40129L32.9436 9.54589L33.2235 9.46946L33.5804 9.52876L33.7332 9.46946L33.8058 9.37147L33.8679 9.39971L33.9779 9.56205L34.0363 9.76977L34.1947 10.0098L34.3181 10.3016L34.2692 10.4382L34.3424 10.6285L34.3209 10.6627L34.2359 10.9726L34.2236 11.0912L34.1554 11.2608L34.2064 11.3119L34.164 11.511L34.0876 11.5833L34.0666 11.6511L34.0493 11.6175L33.9012 11.5367L33.634 11.2522L33.5998 11.1463L33.4514 11.0785L33.3962 10.9681V10.8578L33.18 10.6754L33.1674 10.6031L33.1167 10.5438L33.078 10.3995H33.0232L33.0019 10.3659L32.9766 10.404L32.9848 10.4801L32.9721 10.5568L33.091 10.7093V10.8369L33.2986 11.0829L33.324 11.172L33.6508 11.4476L33.6974 11.5367L33.6761 11.6258L33.6847 11.7064L33.8759 11.9144V11.9781L33.9351 12.0501L33.9564 12.2663L34.0153 12.3599L34.0115 12.4785L34.3634 12.996L34.389 13.153L34.4819 13.2126L34.7051 13.5392L34.7539 13.6895L34.8173 13.7659L34.8236 13.7276L34.8604 13.7555L34.952 13.8975L35.0052 13.9071L35.0696 13.9752L34.9044 13.9648L34.8626 13.9289L34.8506 13.9794L34.8867 14.0542L34.894 14.1931L34.8741 14.2714L34.9609 14.5632L35.1343 14.6754L35.2401 14.6796L35.3077 14.6478L35.3796 14.7963L35.4963 14.8299L35.5296 14.8996L35.6608 15.0328L35.7581 15.0712L35.7565 15.0826L35.7499 15.1302L35.7372 15.1812L35.767 15.2231L35.7518 15.2532L35.773 15.2785L35.7708 15.3017L35.7939 15.3331L35.8317 15.4888L35.9388 15.6182L35.9378 15.6718L35.9106 15.6727L35.896 15.6363L35.8516 15.5824L35.833 15.6001L35.8478 15.7032L35.9832 16.1062L36.0133 16.3269L35.98 16.5349L36.0564 16.7759L36.1572 16.9675L36.2507 16.9884L36.4967 17.154V17.2602L36.6111 17.2646L36.7341 17.328V17.4044H36.7766L36.9078 17.5446L37.1411 18.1598L37.2175 18.5628L37.26 18.5755L37.2898 18.7236V18.7747L37.3662 18.8L37.4128 18.9193L37.4423 19.0931L37.5399 19.1184L37.5313 18.9615L37.506 18.9656L37.5146 18.8511L37.557 18.8343L37.6588 18.9786L37.6204 19.0211L37.7142 19.1625L37.7799 19.2281L37.8347 19.1901L37.9175 19.1793L37.9533 19.2005L38.0252 19.1749L38.1288 19.2912L38.1818 19.3569L38.3381 19.3931L38.372 19.452L38.5625 19.6635L38.6427 19.8053L38.7587 19.8541L38.8392 19.9537H38.8858L38.89 19.9197L38.928 19.9724L39.0212 20.2052L39.091 20.2245L39.1711 20.3279L39.1502 20.3618L39.2006 20.4718H39.2602L39.3214 20.5035L39.3658 20.4636L39.3848 20.4953L39.4143 20.5089L39.4168 20.5099L39.4143 20.5521L39.5432 20.6792H39.5794L39.5626 20.7318L39.5819 20.9053L39.5246 20.9288L39.4209 21.0452L39.3429 21.0471L39.2856 21.1317H39.1648L39.2263 21.2078L39.2643 21.2164L39.3512 21.1806L39.497 21.1783L39.516 21.218L39.5496 21.2884L39.5854 21.2947L39.9262 21.6695L39.9661 21.7539L40.0213 21.7685L40.1607 21.8953L40.2983 21.9292L40.4612 21.908L40.512 21.8468L40.6578 21.758L40.7491 21.7558L40.937 21.6058L40.9919 21.6039L41.0258 21.6356L41.1783 21.6289L41.2309 21.6099L41.3428 21.6629L41.5057 21.6439L41.8462 21.4323L41.9562 21.4111L42.0662 21.4596L42.1508 21.4323L42.3023 21.439L42.4589 21.361L42.6358 21.3486L42.6891 21.38L42.747 21.3791L43.0197 21.3286L43.1233 21.2459L43.2885 21.2227L43.3351 21.2653L43.3519 21.2189L43.524 21.1983L43.6239 21.0991L43.6429 21.114L43.6856 21.0328L43.6723 21.0191L43.7405 20.9519L43.788 20.9583L43.7814 20.9329L43.8486 20.9804L43.9928 21.03L44.0572 21.0246L44.0825 21.0404L44.0245 21.1267L43.9887 21.2157L43.9824 21.3065L43.95 21.3623L43.977 21.4117L44.0496 21.4136L44.0549 21.4473L43.996 21.4967L43.9459 21.6134L43.996 21.6819L44.014 21.7767L43.9729 21.8645L44.0486 21.8544L44.0394 21.8272L44.0752 21.8367L44.1076 21.9039L44.0718 21.9226L44.06 21.9007L43.9887 21.9017L43.9399 21.9147L43.8575 22.0542L43.9018 22.1281L43.8806 22.2616L43.8445 22.3206L43.8533 22.4667L43.6596 22.7376L43.5275 23.0169L43.4473 23.1162L43.4026 23.1076L43.3899 23.1212H51.5804C51.6722 23.1212 51.7415 23.0417 51.7369 22.9513C51.7283 22.8806 51.7171 22.8111 51.7084 22.7404C51.6538 22.2987 51.587 21.8611 51.5106 21.4263C51.4871 21.2928 51.4637 21.1587 51.4382 21.0255C51.3398 20.5175 51.2317 20.0126 51.1047 19.5158C51.095 19.478 51.0833 19.4412 51.0736 19.4035C50.9526 18.9399 50.8166 18.4823 50.6711 18.0288C50.6296 17.8985 50.5865 17.7691 50.5431 17.6398C50.3928 17.1967 50.234 16.7578 50.0612 16.3256C50.0441 16.2832 50.0292 16.2394 50.0121 16.1972C49.8216 15.7285 49.6146 15.2688 49.3981 14.8146C49.3417 14.6954 49.2827 14.5777 49.2244 14.4601C49.0364 14.0802 48.8402 13.7057 48.6345 13.3369C48.5895 13.2564 48.5473 13.1739 48.5013 13.0943C48.2544 12.6621 47.9942 12.2388 47.7234 11.8227C47.6572 11.7209 47.5881 11.6214 47.5206 11.5208C47.2936 11.1819 47.0584 10.8486 46.8159 10.521C46.7471 10.4281 46.68 10.3339 46.6099 10.2416C46.31 9.84808 45.9997 9.46283 45.6782 9.08737C45.613 9.01094 45.5448 8.93737 45.4785 8.86156C45.2059 8.55049 44.926 8.24636 44.6391 7.9486C44.5501 7.85632 44.462 7.76342 44.3716 7.67272C44.0223 7.32076 43.6651 6.97635 43.2961 6.64469C43.2498 6.60283 43.201 6.56352 43.1541 6.52197C42.8231 6.22864 42.4837 5.94511 42.1378 5.66892C42.0332 5.5852 41.9286 5.50245 41.8227 5.42031C41.437 5.12159 41.0448 4.82987 40.6419 4.55272C40.6315 4.54542 40.6217 4.53781 40.6112 4.53084C40.1982 4.24766 39.774 3.98065 39.3445 3.72126C39.2307 3.65276 39.116 3.58554 39.0009 3.51863C38.6259 3.29982 38.2455 3.08958 37.8585 2.88949C37.7907 2.85429 37.7244 2.81655 37.6559 2.78167C37.2099 2.55621 36.7553 2.34533 36.2951 2.14524C36.1781 2.0945 36.0599 2.04662 35.9423 1.99747C35.5584 1.83701 35.1698 1.68575 34.7764 1.54369C34.674 1.50627 34.5723 1.46663 34.4689 1.43079C33.9925 1.26558 33.5097 1.11369 33.0209 0.975743C32.9119 0.944983 32.8009 0.918348 32.6912 0.888858C32.2852 0.779768 31.8753 0.680835 31.462 0.591411C31.3361 0.564455 31.2109 0.535597 31.0844 0.510231C30.5801 0.409389 30.0713 0.320599 29.5566 0.24925C29.4723 0.237517 29.3863 0.229907 29.3014 0.218808C28.857 0.161728 28.4084 0.116699 27.9574 0.0821342C27.8179 0.0716699 27.6784 0.0608884 27.5386 0.0526435C27.0086 0.0206155 26.4755 0 25.9375 0C25.9046 0 25.8725 0.00222331 25.8399 0.00254041C25.3327 0.00476017 24.8217 0.0253722 24.3085 0.0570828C24.1326 0.0681814 23.9579 0.0824514 23.7829 0.0970384C23.4235 0.126213 23.0621 0.166168 22.7001 0.210246C22.47 0.239103 22.2383 0.263203 22.0097 0.298085C21.9923 0.300622 21.9742 0.304744 21.9565 0.307281C10.3947 2.09735 1.35417 11.5186 0.139792 23.2649C0.134403 23.3166 0.130282 23.368 0.125527 23.42C0.0922432 23.7609 0.0672015 24.1046 0.0472312 24.4493C0.0415254 24.5511 0.0348687 24.6529 0.0304308 24.7544C0.0120455 25.1514 0 25.55 0 25.9514C0 25.9838 0.00158494 26.0158 0.00158494 26.0485C0.00285289 26.4176 0.0129965 26.7845 0.0294799 27.1498C0.0345517 27.2618 0.0405744 27.3731 0.0469142 27.4847C0.0656163 27.809 0.0903414 28.1325 0.120772 28.4541C0.127746 28.5292 0.133135 28.6047 0.140743 28.6798C0.181 29.0661 0.230133 29.4495 0.286874 29.8306C0.301138 29.9251 0.317305 30.0187 0.33252 30.1125C0.381019 30.4147 0.43459 30.7153 0.49355 31.0144C0.51352 31.1158 0.532854 31.2174 0.553778 31.3188C0.632389 31.693 0.716709 32.0649 0.811171 32.4331C0.822265 32.4765 0.834945 32.5191 0.846356 32.5622C0.932578 32.8914 1.02577 33.2176 1.12436 33.5414C1.15574 33.6451 1.18807 33.7478 1.22072 33.8506C1.3174 34.1541 1.41884 34.4553 1.52629 34.754C1.54848 34.8156 1.56909 34.8783 1.5916 34.9399C1.72124 35.2921 1.85945 35.6403 2.00368 35.985C2.04045 36.0732 2.07912 36.1601 2.11716 36.2476C2.23413 36.5194 2.35585 36.7892 2.48233 37.0559C2.52449 37.1457 2.56601 37.2354 2.60944 37.3242C2.77237 37.6591 2.94069 37.9904 3.11726 38.3167C3.14293 38.3637 3.17019 38.4096 3.19587 38.4563C3.35183 38.7404 3.51317 39.0204 3.67928 39.2979C3.73348 39.3882 3.78832 39.4783 3.84348 39.5677C4.0118 39.8408 4.18424 40.1106 4.36207 40.3767C4.39281 40.4233 4.42261 40.4708 4.45399 40.5171C4.66131 40.8231 4.87622 41.1241 5.09589 41.4206C5.15361 41.4976 5.21254 41.5741 5.27057 41.6508C5.44774 41.8839 5.62844 42.1144 5.8129 42.3408C5.87281 42.4147 5.93211 42.4893 5.99299 42.5625C6.22818 42.8457 6.46879 43.1244 6.71571 43.3974C6.75721 43.4431 6.80004 43.4872 6.84155 43.5322C7.05395 43.7634 7.27044 43.9904 7.49075 44.2134C7.56458 44.2882 7.63876 44.3624 7.71325 44.4363C7.94656 44.6668 8.184 44.8939 8.42583 45.1159C8.45912 45.1463 8.49084 45.178 8.52413 45.2078C8.79767 45.4561 9.07758 45.6968 9.36127 45.9334C9.43703 45.9964 9.51407 46.058 9.59045 46.1204C9.81805 46.3053 10.0488 46.487 10.2824 46.6643C10.3553 46.7195 10.4273 46.7759 10.5009 46.8308C10.7972 47.0505 11.0977 47.2652 11.4036 47.4726C11.4604 47.5113 11.519 47.5477 11.5761 47.5861C11.8328 47.7577 12.0928 47.9242 12.3556 48.0862C12.4456 48.1414 12.5353 48.1965 12.6256 48.2508C12.9172 48.4258 13.212 48.5964 13.511 48.7604C13.5414 48.7768 13.5709 48.7946 13.6016 48.8111C13.9284 48.9883 14.261 49.1574 14.5963 49.321C14.6873 49.3654 14.7792 49.4082 14.8709 49.4513C15.14 49.5788 15.411 49.7012 15.6852 49.8195C15.7676 49.8557 15.85 49.8924 15.933 49.9273C16.2773 50.0716 16.6254 50.2092 16.9769 50.3389C17.0486 50.3656 17.1215 50.3896 17.1934 50.4153C17.4838 50.5193 17.776 50.6186 18.0711 50.7125C18.1732 50.7448 18.2753 50.7775 18.378 50.8089C18.7235 50.9145 19.0716 51.0145 19.4231 51.1057C19.4421 51.1108 19.4608 51.1164 19.4802 51.1215C19.8491 51.2164 20.2222 51.3005 20.5972 51.3795C20.7015 51.4015 20.8061 51.4213 20.9107 51.4422C21.2122 51.5019 21.5152 51.5554 21.8205 51.6044C21.9083 51.6186 21.9951 51.6345 22.0833 51.6477C22.464 51.7048 22.8472 51.7538 23.2326 51.794C23.3176 51.8022 23.4029 51.8088 23.4881 51.8165C23.8026 51.8466 24.1186 51.8705 24.4363 51.8889C24.5456 51.895 24.6546 51.9016 24.7644 51.9067C25.1603 51.9246 25.5578 51.9368 25.9585 51.9368C26.3753 51.9368 26.7896 51.9271 27.2016 51.9072C27.3579 51.9006 27.5117 51.8848 27.6673 51.8746C27.9222 51.8578 28.178 51.844 28.431 51.8206C28.5951 51.8047 28.7568 51.7813 28.9197 51.7629C29.1613 51.7349 29.4041 51.7109 29.6434 51.6773C29.8197 51.6523 29.9931 51.6186 30.1681 51.5901C30.3915 51.5534 30.6163 51.5208 30.8378 51.4784C31.0198 51.4443 31.1989 51.4014 31.3796 51.3627C31.591 51.3173 31.8037 51.2765 32.0132 51.2261C32.1967 51.1822 32.3771 51.1302 32.5591 51.0828C32.7623 51.0293 32.967 50.9798 33.168 50.9215C33.349 50.8695 33.5265 50.8095 33.7063 50.7531C33.905 50.6912 34.1053 50.6326 34.3019 50.5656C34.4781 50.506 34.6509 50.4385 34.8252 50.3747C35.0211 50.3037 35.2189 50.2359 35.4126 50.16C35.5879 50.0913 35.7597 50.0151 35.9334 49.9428C36.1217 49.8642 36.3119 49.7891 36.4983 49.706C36.6704 49.6292 36.8391 49.5452 37.0096 49.465C37.1928 49.3784 37.3782 49.295 37.5592 49.2046C37.7266 49.1206 37.8899 49.0299 38.0553 48.9427C38.2347 48.8479 38.4157 48.7562 38.5926 48.6573C38.7546 48.5669 38.9121 48.4699 39.0719 48.376C39.2475 48.273 39.4254 48.1725 39.5987 48.0652C39.7557 47.9682 39.9081 47.8642 40.0628 47.764C40.2333 47.653 40.4061 47.5452 40.5738 47.4304C40.7272 47.3258 40.8759 47.2151 41.0268 47.1073C41.1913 46.9896 41.3577 46.8745 41.5191 46.7534C41.668 46.6415 41.8126 46.5238 41.959 46.4087C42.1166 46.285 42.2767 46.1636 42.431 46.0364C42.5762 45.9171 42.716 45.7922 42.8583 45.6701C43.0095 45.5398 43.1626 45.4126 43.3106 45.2792C43.4483 45.1552 43.5811 45.0258 43.7161 44.8993C43.8629 44.761 44.0119 44.6256 44.1554 44.4838C44.2876 44.3542 44.4144 44.2188 44.5437 44.0859C44.6839 43.9419 44.8262 43.8005 44.9631 43.6533C45.0899 43.5167 45.2113 43.3752 45.3352 43.2364C45.4687 43.0867 45.6044 42.9389 45.7344 42.7861C45.8548 42.6443 45.9699 42.4978 46.0872 42.3535C46.2139 42.1978 46.3427 42.0444 46.4657 41.8858C46.581 41.7374 46.6907 41.5845 46.8026 41.4333C46.9215 41.2731 47.0426 41.1152 47.1576 40.9525C47.266 40.799 47.3684 40.6414 47.4736 40.4858C47.5859 40.3199 47.7 40.1559 47.8081 39.9876C47.9101 39.8287 48.0062 39.6657 48.1048 39.5046C48.2091 39.3344 48.3153 39.166 48.4158 38.9931C48.5115 38.8276 48.6015 38.6586 48.6937 38.4912C48.7892 38.3177 48.8874 38.1458 48.9794 37.9698C49.0681 37.7992 49.1508 37.6248 49.2364 37.452C49.3239 37.2747 49.414 37.0984 49.4976 36.919C49.5791 36.7442 49.6539 36.566 49.7316 36.3891C49.8115 36.207 49.8938 36.0256 49.9696 35.8414C50.0429 35.6638 50.1091 35.4831 50.1782 35.3033C50.2508 35.1152 50.3256 34.9288 50.3938 34.7388C50.4584 34.5584 50.5164 34.3751 50.577 34.1931C50.6417 34.0003 50.7082 33.8081 50.7685 33.6131C50.8249 33.4285 50.8749 33.2411 50.9276 33.055C50.9831 32.859 51.041 32.664 51.092 32.4664C51.1409 32.2765 51.1827 32.0843 51.2276 31.8928C51.2735 31.6949 51.3224 31.4977 51.3642 31.2979C51.4045 31.1048 51.4376 30.9088 51.4739 30.7138C51.5111 30.5127 51.5503 30.313 51.583 30.1103C51.6146 29.9134 51.639 29.7139 51.6661 29.5154C51.69 29.3385 51.716 29.1625 51.7369 28.9846C51.7415 28.8945 51.6722 28.8149 51.5809 28.8149Z" fill="currentColor"></path>
    <path fill-rule="evenodd" clip-rule="evenodd" d="M32.8712 43.0908L32.8186 43.1025L32.7803 43.1111L32.8712 43.0908Z" fill="currentColor"></path>
    <path fill-rule="evenodd" clip-rule="evenodd" d="M64.4132 36.9522L62.5971 41.2062H66.187L64.4132 36.9522ZM62.1183 42.3046L60.8375 45.3178H59.542L64.4417 34.1924L69.214 45.3178H67.9047L66.6515 42.3046H62.1183Z" fill="currentColor"></path>
    <path fill-rule="evenodd" clip-rule="evenodd" d="M86.3904 35.7988V38.9534H89.9242V40.0519H86.3904V45.3184H85.208V34.6997H90.0374V35.7988H86.3904Z" fill="currentColor"></path>
    <path fill-rule="evenodd" clip-rule="evenodd" d="M107.57 39.6149H107.936C109.273 39.6149 110.625 39.3612 110.625 37.7138C110.625 35.9675 109.344 35.7988 107.922 35.7988H107.57V39.6149ZM107.57 45.3184H106.388V34.6997H107.922C109.936 34.6997 111.809 35.235 111.809 37.6288C111.809 39.2626 110.78 40.4178 109.147 40.5579L112.526 45.3184H111.076L107.866 40.6569H107.57V45.3184Z" fill="currentColor"></path>
    <path fill-rule="evenodd" clip-rule="evenodd" d="M128.729 45.3184H129.912V34.6997H128.729V45.3184Z" fill="currentColor"></path>
    <path fill-rule="evenodd" clip-rule="evenodd" d="M155.09 37.0241C154.245 36.1502 153.076 35.6155 151.851 35.6155C149.487 35.6155 147.572 37.6716 147.572 40.009C147.572 42.3471 149.5 44.4032 151.879 44.4032C153.076 44.4032 154.245 43.8397 155.09 42.9949V44.46C154.174 45.1214 153.047 45.5017 151.921 45.5017C148.923 45.5017 146.389 43.0653 146.389 40.0519C146.389 37.0095 148.881 34.5171 151.921 34.5171C153.104 34.5171 154.146 34.8545 155.09 35.5591V37.0241Z" fill="currentColor"></path>
    <path fill-rule="evenodd" clip-rule="evenodd" d="M175.751 36.9522L173.934 41.2062H177.524L175.751 36.9522ZM173.456 42.3046L172.175 45.3178H170.88L175.779 34.1924L180.551 45.3178H179.242L177.989 42.3046H173.456Z" fill="currentColor"></path>
    <path fill-rule="evenodd" clip-rule="evenodd" d="M69.1408 18.4104C68.8593 16.8778 67.4516 15.8767 65.9195 15.8767C64.2624 15.8767 62.8863 16.7526 62.5427 18.4104H69.1408ZM74.4255 21.695H62.4489C62.4489 24.0098 63.6684 25.2615 66.0133 25.2615C67.2329 25.2615 68.1088 24.8546 68.7339 23.7908H74.2067C73.7682 25.6677 72.6425 27.044 71.1731 27.9512C69.7031 28.8588 67.8901 29.2961 66.0449 29.2961C60.7286 29.2961 56.7578 26.2933 56.7578 20.7566C56.7578 15.4074 60.4161 12.1855 65.638 12.1855C71.2042 12.1855 74.4255 15.6262 74.4255 21.1007V21.695Z" fill="currentColor"></path>
    <path fill-rule="evenodd" clip-rule="evenodd" d="M92.005 14.2813V5.17871H98.134V28.7652H92.005V19.0991H83.1554V28.7652H77.0264V5.17871H83.1554V14.2813H92.005Z" fill="currentColor"></path>
    <path fill-rule="evenodd" clip-rule="evenodd" d="M112.729 18.4104C112.448 16.8778 111.041 15.8767 109.508 15.8767C107.851 15.8767 106.475 16.7526 106.131 18.4104H112.729ZM118.013 21.695H106.037C106.037 24.0098 107.257 25.2615 109.602 25.2615C110.821 25.2615 111.697 24.8546 112.323 23.7908H117.795C117.357 25.6677 116.231 27.044 114.761 27.9512C113.292 28.8588 111.478 29.2961 109.633 29.2961C104.318 29.2961 100.346 26.2933 100.346 20.7566C100.346 15.4074 104.004 12.1855 109.227 12.1855C114.793 12.1855 118.013 15.6262 118.013 21.1007V21.695Z" fill="currentColor"></path>
    <path fill-rule="evenodd" clip-rule="evenodd" d="M125.812 20.7566C125.812 22.79 127.157 24.3539 129.472 24.3539C131.785 24.3539 133.129 22.79 133.129 20.7566C133.129 18.7858 131.785 17.128 129.472 17.128C127.157 17.128 125.812 18.7858 125.812 20.7566ZM138.633 28.7649H132.942V26.9815H132.88C131.879 28.5772 129.909 29.2961 128.033 29.2961C123.28 29.2961 119.934 25.3236 119.934 20.7253C119.934 16.1269 123.217 12.1855 127.97 12.1855C129.815 12.1855 131.753 12.8737 132.942 14.281V12.717H138.633V28.7649Z" fill="currentColor"></path>
    <path fill-rule="evenodd" clip-rule="evenodd" d="M141.772 28.7649H147.464V2.80078H141.772V28.7649Z" fill="currentColor"></path>
    <path fill-rule="evenodd" clip-rule="evenodd" d="M169.662 2.80078V14.7504H169.725C171.038 12.9986 172.632 12.1856 174.853 12.1856C178.918 12.1856 180.888 14.8756 180.888 18.9419V28.7649H175.196V20.5379C175.196 18.6606 174.915 16.7212 172.632 16.7212C170.381 16.7212 169.662 18.6606 169.662 20.5379V28.7649H163.971V2.80078H169.662Z" fill="currentColor"></path>
    <path fill-rule="evenodd" clip-rule="evenodd" d="M161.784 12.717H158.564V2.80078H152.873V12.717H149.652V17.4093H152.873V28.7649H158.564V17.4093H161.784V12.717Z" fill="currentColor"></path>
</svg>